<svg xmlns="http://www.w3.org/2000/svg" viewBox="0 0 512 512"><path d="M480 432H32c-17.664 0-32-14.336-32-32V112c0-17.664 14.336-32 32-32h448c17.664 0 32 14.336 32 32v288c0 17.664-14.336 32-32 32z" fill="#1e88e5"/><path d="M480 432H32c-17.952 0-32-14.048-32-32 0-5.088 2.432-9.888 6.528-12.896l240-160c2.816-2.08 6.144-3.104 9.472-3.104s6.656 1.024 9.472 3.104l240 160C509.568 390.112 512 394.912 512 400c0 17.952-14.048 32-32 32z" fill="#2196f3"/><path d="M480 80H32C14.048 80 0 94.048 0 112c0 5.088 2.432 9.888 6.528 12.896L246.656 297.28c5.568 4 13.088 4 18.656 0L505.44 124.896c4.128-3.008 6.56-7.808 6.56-12.896 0-17.952-14.048-32-32-32z" fill="#64b5f6"/></svg>